<mxfile host="app.diagrams.net" agent="Mozilla/5.0 (Windows NT 10.0; Win64; x64) AppleWebKit/537.36 (KHTML, like Gecko) Chrome/139.0.0.0 Safari/537.36 Edg/139.0.0.0" version="28.1.1">
  <diagram name="Page-1" id="IcTmkwYMQCFX1rGFoxIL">
    <mxGraphModel dx="864" dy="474" grid="1" gridSize="10" guides="1" tooltips="1" connect="1" arrows="1" fold="1" page="1" pageScale="1" pageWidth="827" pageHeight="1169" math="0" shadow="0">
      <root>
        <mxCell id="0" />
        <mxCell id="1" parent="0" />
        <mxCell id="wuP2YbNjgYJWJ45BDKAi-2" value="" style="shape=image;verticalLabelPosition=bottom;labelBackgroundColor=default;verticalAlign=top;aspect=fixed;imageAspect=0;image=data:image/png,iVBORw0KGgoAAAANSUhEUgAAAGYAAAByCAYAAAChmKTvAAAAAXNSR0IArs4c6QAAAARnQU1BAACxjwv8YQUAAAAJcEhZcwAADsMAAA7DAcdvqGQAACJDSURBVHhe7X1rcF3Xed06j/vCvXgRIECQBEFSJiValqnIkmy9rGQsO1Uax57YjTup7aRVOnUnjTud1JM0r2bS/umfNFN32nqSmU6aJpm0jjNurbCxbNmW5EhxLJrWgxIpig/wAQLE8wK473NO19rnHuDg8oIEwQvyOr6L2rjnsc/e3/7W3t/+vn0esgICHbQd7PpvB22GDjFtig4xbYoOMW2KDjFtig4xbYoOMW2KDjFtig4xbYoOMW2KDjFtig4xbYoOMW2KDjFtig4xbYoOMW2KDjFtig4xbYoOMW2Kzj1/A7/+2xzRWfsW9uMfYmIayWhOTng0JKRDzJYhVHP87yqaExOSEhESEbT1uHVdoI0QqTpMImQ9Um4ffrhGTNRSK05EbLuZJiz9aey/W9+ffziJicOQJO3z5Hqa4Gnf92FZhiViLTGrx1uHjlfWBNVqAJvKdtxw3/cAj/8iAiJa1iNkveONBvNa4641xEQltL7j3CQiVaxVQaOCakzkAtVaeCaZsE1TzK7nweWeYwVUuDkNu95eyw4PNBLRjBgVFVe0cmwtMebqmAKulukqKHcoVHRdhGuJuj5itYeQTMZExc/Eyo61uMyU54EalZkMD6HCpCyJekqzGIcE1XlYwY0Sw4FnIElWc/gxyVa3WksMa1M1Ri9MtmmixWNqXhxxYeJofvRaUM1RA8I6iYBHlQw5OlK3SYTHTFJQtZ4KTDNMExR14tICZmZmMTk5hd7ePgzv2I7B7m68ayiBNPOolIisBIvWvkZPUBd7dSStlUvbgkaluFR2Jcvk8OEYyYV6QURriDFKUKN9NjpUwlKxgG0ZGQmL9HSZ6kN4bFiwshciEmhVsI0g3nhhDTE+61aSPB5VmWYHYeYCMxV59ALZeWMK+PbJGbxw4iwWahbK5fJKb7cdhpO2DZcjxamUcd+BPXj08Bju3mHhHWSpj3mCpRp6c66RQzUFFR815s9mEsiXPPi2gyyHYZ4ZZmbyGNzWgwQbLmIlp7qwuu3WESPRRAy3yixcDe/VYe65pKVijIQI00jxuSVB1JxQvFWBVgXbCFSCqtevoKsN4XFiPJtKS8OjMhd4eJZCvni6hm8eP42/eXuSoyUDd8cYam7WkFKpVODVapBaPHlinPlHhrahMH0BPdUZjHUF+Pgjh/Ew2emmHXSZUnaFjgKJpLfgs5kFVmtT+8sUZTbP+r7xDQxm0/iJJx4yMooYh1I7hhjmrTNgWavdtbWTP7HIml6aqqEUeLhzIIFht4YcCXLUp5RP414CaLxTTNG0utQR/W4MjcQIKkGNXjFntouJeQ/zbgLVHPCFpy/ib8fncLlkw8vk0L1jF5YDB8uc6TViIkgtvtwxllVeyqO3rxvdJNqfnsDORA337h3AUz+5x3TAvUxS6RzTPNMs01kS8u1XgJPHXkTt1HP43d/4LPYMZlCrBehy6Uyw3DBp29DDtIqWECMf36PCNUxlr3/vW6fx3PeO4V984qdweMTFKInJyJqrncYgM9FMeEx0TPnPMX8bhbse4sREjYg3UT2ywCNS1GvU2B8cOY7xUhdeu1xCcnAn7GQKi8UyAvb2gBfKfGnUWOw0cpcDTgg6XhHBHEU5K43BlANvbgLp2ix2D1r4zE+/E++mQVguBjg56+PMkoMjL72Jy8s0ayR8Z7qKR/uX8akPPIA9vatdUKRE1sPhv0a0hJiqF6DMWTVBAY9z/P7q/34Zr128gvv278ZnPvou3JsBcv4yeikogwRewdaSxRp3axQvwWRHhOlsE6+mGUJC/DXEiGjxH0Fm9SjT5790AsfOL6Oc3omC24+ynTImxGdVQUDTZSuAXFu/RaKqlNVoiJXobJLbKdaQxiLVOYN0MI9H7tqD2dlZvDFZwsRCCdlt25FLJbE0NY67ugP82ocfwcMDtCYUrIttDk2ZjDvnL7Otv2sREXhTUEOk80Vuv83ueXGBPbDvDpyp9OK/f/0SjtOKTdpZzFXTKFVSHDlkkF1RQRsteVjIpkBlMmkWscz0K+eDPZVbSiLlLSryC8+cxzfHF5DZdzdNDZUda3Vo33lAHaMh+WRtxesWifwt8TdPM73A+WQp04+FzAi++PI4vnm+igv2MILtB1B1c8gvzLAjzuOffuwRjGwLixDYegN5ZCzddKjoXByU4OZBSwCXxExz+/WJRSyUkwhSI5jwcnjm1DR+5Q+ex0Wem2FXSfaQFA2tujMQqlAgmeyaURLi281wtfAhOSUm0b3E9Mx3z+LIm5Mo7jiEyzRbyZTFXr6ErLfA+KSIBEeLTArjR6ppbbLpxrksSMlhsqwSp0ZGPW6edRSQpxe25GfR1XsQyfQ+xqL9qC656Kbr3T0zhX/5oYfx3m5ggIWppQVOYYvckNzqUOqYzUgRWkKMoIYssXHnpmfgO2lUaY9LiRwqPcNY7NuP3/rj4zhKO3+e+RbIS6W+3hHZWot23Gf3XEk8Z5S1Pi8GYSND263GSgX0q8zWZaa/+NYxJLfT66Jri2QWSzQ5sLhdT74l0+pzgDCx3ngy6lTEb0gLR6a5zhxXjUmacJostdXu4hyVRCZNP3R5Bh9+8gN4z119KJBQ9gu8fJ6e4Asv4ciRv2I5alTNdB6lZk3c0BxzvSwBTZlcw9eYfv33n8c57MesO4Biij2eDUl7Fdj5Sbyj28JH7n8H/sGhhPFmhtjvbJ/dyA9tbJk2XQGgxdEkdyDp8biqpg40CUdYnYOkvPCv5hpFTDVeO0mFyQn5T1/+Pr57xcL55E4sOj0sk6PDuNKciWSqWLBPBZMe5g4dgDg05wTMb8lOGxWKEOUVccqhaygcCdExK6gi483jH390J3rIn8c4afFCAVOXJuDkL6O/eBq/8YufwICiVdZapWFTl9Kuw3bG51bRftMQb+p3gnq76X2sSb2uQsO87KXgd4/iot+FLx19E3907AquMO+5iks3NUETwAay3S7LUUSd4K/jqXdyh2VdG2qC1rZWPR56pJhkT7lUcHFpkTuBy3JZjiGDU67lcp7hXEN9e2akiPhwlMSTaYtJVfNrYOYf+lIMWCxf20zSp6N8RQaVJXzt2xfxR1/+Hv7Hke/h2VfO4vxcAVcWFvC5X/6UiXfUiUJpZS80Fht6BBG15eawxt6sVaRF7yfByTCR7EbJ6sOZBQt/8vxx/LunX8PJpIupZBeW3S42Mgmn7CBRchi00b8nUXIMahYdBKOUZgSF4utvfCvHdp69tIzzVxboAITGclPQ6LoGVkaYsUnMSwJF+MXpAJPzdMUrCXaSKnLJPP71L/2E6TD9ruI2Xhto/UNtbI5NSrwWPoWKcy7Tp2OKnIV+2i3FbkU/B79nFMW+ffirN6fxW3/6Kp5jz55gz52he1lx6LNYTAEHt69fNkI90mBjompEKNA7cW4C0wXu5QZoNNgrKZPk2oDlviGoT9okxhYxpvPYWM77GOjdid0Dg4zflvHUzzyCXQxu1WGKNLfhrBqab7UqivzjaAkxssMqSOSMjo6agFPHgrr5mKLBpwND08EI2+rGjNUPf8c9OFnqwW/+z5fxb/7vK/hLunSXaKrHWYYWFmlHYNHE2TIbxsZfAysNC2OYKbpj56f5J7cdbs+QCX6NPOukRpjJPpbWg845bGPSr3E+pKpZlEPz1sV5x8rPoHLxFH7l0w/jQB87J/MnafBDha+SYjp0vFfX0RJiosBMf/v6+9jY1d4ZcPJQ00UM41AT7VfdbhLUi5I7jOXMHhxjtPzbX/x/+LWvvImzDEanmOa7SKQcNwmtghtn5ghSXJSY0aiZ+ZdqJCOzDQU6FmbEMEN8xCiwbAVUjENyNXknvARS7BnbMwG2M6r7w998FO9hYLmTmbIkhUFE2BQlsho1rRnWO35DSHAkqKdKj0NDg+bYCjS5agLXSdWmjNKemUDTqAS9DNZ2AGP34fn5Gp76wgv4b6+UcIS+7ilKPsG85ubBtSSNJmZWoOIDWsEFRoJWrt8EhD7lM8sr9WSi/ViKcL0R0pg/hOqmxeB1Dl3ndM3H4T1d+I+fvRe76RHt4PDfRqG6GO8nqQTOoCRE/7QOr0Verc+x8zaUe9PEGM+FqgvYI9jJsZMBVYoBnEuDlNTiWU3eFStncBaqWH4kr6Gwigg8O0m7242Ly3RzOYomEtvwX776Iv7z11/H55+dxZdOeniVlysmuUJ3coYpz2255yqxygbJ5VXD5BmKGFmKYq0CizGF0KjMq5V7M5AKmWgubXpq8v4ef/cAhnl0JwPqPjY0TdLkbcoTk/eo6sO4KEzNxNk0MZFZ8IMiOZ9jQVewjap5L4fuoR0JFKbfQjrB4o0DUKQk7DqBUp0gm348jXKRM2eR7kq5RpcaPfASwwgG34njlT588cwy/sMLp/DLf3kCv3N0Gs/ySq17aRVB7rZWGhSvzPHKRUbwBVKlZZg8/2R7UpiZZw6FGDSf8STTG0/XQzSSmo0o7QbshpFJcDW/MpA2+dh0S0siqoJJM4tSuKv8Es4IyLQWzm8T9e1NwaM7W+WIkPpd/gtYkd3Vj+NnxuGn+6goTeDhsofDwM70Dt3G05YCKnOAf9iN1Zt0t7NGF7viZFCkG11wM5jhfHHyyhL+9MhRnDIruC5OLweYYzxSZPtmli0SzCY7CSPHORb34tvzGM9TZdv64Jc1yzRoNI5rnBKMiOsgHAHhwr1GQbeXxyN7e3BXr21upskhoJgrpsr8mLbqgY+Qpqj81S3mY6+/jlgsp0mW6FiFXaNAcmqsSEJWqFiZlM9/7TL+14lJFPpGUKxqiSXsJ+pdvs2gktIG0Y0hGWhOoGZYx6oyJocmwicxelRlW18a+bkJBMU5ZBzGzYxIe1nbnX29GEjaGOhxkOzKYSmdw3MnLuP1OXaKoTH4pVKsyWy0bmXG0MQxW4PGURKH3Hk3YGeUA8ARu716EZ99fAw/dTCFXSw3KdtKk6YVjQgqLl5mLOA3kKZaQIyFMpPWp6TYgFKonboH8vP/9UVMpAZoZrqYL00BwmBPpHg0IeZ+jIRiEjfqcXHonM9GJ5MOKmrgEinPspWVBXZFjkL2xKRXRfdyGakq5zRfi4zsJKkUg9Y05myZRs18Mln1TkC0mhib3oZLfTg0piLmFx8dxcfemcEIZW5GjGEmhmbEXG3cNgit6yjZfoVjYBkDVGuGNaaY6C2aJ0s+98mH0F2YQBdNWZpkJNmIpFkeoV7pO9tMlpLsMrXTGFdoyUOuqEfXilMSbE3mjKTB6FnrUz7SKNFhWOwaRr57DPme/VjI7kU+OYyi00fiaL850tSb4ymSPULjXCMi4ulG4emJGv5GFrsRqjqemmHTxERwHBulch6z/hyuMLz/s2e+hbcZ2xVY8kF6aL/w84+jJ5NBeakIT92eJIgQV+QwmZGyXuOjpRiLHhZdDI1LhyRrZIWnRBTDNo7Ggt2FRbcXSy7nNSeHip02DqnsePSY0a2CbklrfK6n9I3gponRSK2mbJTtLC753fjDb5/Fr/6fo/ilPz+BP5ug65wDHv/AMMbGRsyySLEgvylEvEeuR07AoRLYdMeZwKS1YHk+MhGKGdJ0vRP06rQswsGAakCzp3mOIzRyowP+kekNaBvDtBpobgU8ynSzXeGmiRGyyGGBFF3kSCnmRvBa3sXL9GN//yuv43O/+zKe/vqi4kmaFocWiHPQBqWOVnRNfsVL0Qiqw5gLsWHurdB1FwlMmsfMWWP/oya2pKlNoPppXjmqfXaiaHVdUpr5kyZho+2NY0PSRja5WdL96hRd5C7OMP2MYYZ23QE3OYCSP4Ba7hC8noOYqfgYn5yD57K3ciL3HRojJa3zy5YR4Y2qSLHhv2jOER8B5xslrXvJcdAqboUnKlRGuHQvv1B36Ot3JDmqzHWm+JCkKGnuMkv2Gu5KzKsUH8EbhjqFs8T2LLHoUJauvpwp1oTQFjsl91RslDaCDRFzLciWKnrJsii67tg/NopauYLevkHMzhfgZbupxPr9DyYRonvuNSmT15pezu1rQ2KGSTemwkSd8pCSrlZPrW9RuatKXrlnspUQObaWVtQxfGzr1Q0wHhY9OmfkujG0RGKbje+hErZz+9BoytxTT1h5skZi6r3IKFHKrI8KMzKYrg2Jd30R4x5dlOJodl6pZdDtCepAc1/Kq2FHb7QOQNnVMTah5hu/ohHq9vSyEuwYdMIwRJ+9n4SUZs+ht5/zCWMOzQ2y+yIinv5ugIQ4CY5OBrc1z9xGT3OgUA0cMZsjRdg0MSuejTGmmmTDXnLPDuDHHziIbHEK1sIE58W8iUVCNAgq82NM0LURzQnrpethxazVU6uRcDM06SSnXMLY4AAGyIq5rW98M60KUM5r1B9pJa6d67fqOpBJUm0emdGm4uyHDvZjb7eFkWQNPX41RswPPtQB6/6KgSyBx9HiKlWr2D88RB81XJrUQx/mceBN4KaJ0ZxRdhnHyMPi8NEDbXtp0z71wceQnJnCAO2ueRDi5qu6bTDOCUe2CDH9kCkkJ+zj5ZICSv6r1XCIjRcxMmWGmE22uyXaktrDWaTKIRwgzVjwib0J/Mz9dwLjbyJXLSFBk6f7FYHuYlnhvTwFi1r2lBfV7jAxVORhGS8vfJlEFqNaW4JjF5Hl74HBuhlTVuOzbg6bJkYxjODwN8k+pHWwBGeZNEfHKMcxQxr87H2j+FdP3o9sfgZJ9irLTyGRZETOyVIur2UVeD2jUtPgVVxvDgkXDlfTViKMr8KupyDSdKaA40ERM/cUP2UHXVTK53HXQA37eCpTzx5B80pkAk3isXhqhpa0SpXJkrlUotbAZF/loe2hhE/euxv/8JFD6Fs+j/5gHpXZWSR9j/kqxsRF62Vtj0ZHxchM9fFYrTKHXKKIh985im4e1/1/Y+9uAi0hRlhZCdAduzr0RtZQFvj0+1L49Y/fjZHidzFqn0K/dwFZbwnpahKJag/bpt7XfjCODWE8KY1MjpLQ7RdJOuOzg3EE5efQVS7gfffuM3lrOqck7dbJjA6Zy0x5sdQELSNmPcgZ0C2AB8aAf//Pn8AvPPkgugqX0W2eAQgDz0gB7QYp2ZhTkmLJdAWcG82qgyJ6rXZXOepr2NubxVg2iRG6pDU6AIrRonZttm0teT8mKiKad+LQ3czTnEa0yjxFgpYosB6seIXHvvYGcHx8GqUSRxkbHaFxXlmdR2KmZA3W5g+XZ1qDyMxqpXpFyZxXonkj581jKH8Sn/vow3hyLGXm1gi8gtO/vDkRG9PNWnHZ9vpvBGbdcmK0gvTHz/wtnv7rY9j77kcww0hnwkrjEvOOVwrIl2UCe5sSo7YYM8KWhAq6tcSszn0q32FooNvhdFTogWmx1PFcDFRm8WB6Bv/2Z+/DQWbzlheQyuqReek3fEzD4RBao5kNENOYZUtw7wMP4ErFx/MX5/H02Tl8Z97BiTk618Uuc8vANR7OWoRmgPac85RwO5ZwwjrV2zWitVRLUCbNGyJI5OgpzPfedRD7RUqtRLdZNkKPjYfYbBe5JcRs6wEef/z9mC5Wkd19B4L+7eZpzJqdRm//tnouNSFsRkiK2TSIb99qrHaIcMVa7Nj1xcq0X0IXnZjH3pUzki8yoM5mciRMe+Ew2KyCW0JM5JE1g3y0EdbygfsPYU9fN+YnJ7CwsMDuVULVKuLS8iw8h/EBe6GKCJ0f/tGTFpKOx3TcJI4e3SU2nXYlKVNEapRag7BDcHRoSZ+TvZaWUjUfO1K96KkGWDzzffzchw9jjBGllqJGhnas1B4+dlLfI6N6JLbO69VQPfFEqFVbChkp1TVEyT/6/vuwM1FBxssj2a3WMHkefPPRlhjMSgBtOX/VOPVA89t0haDZsdZCbxBIVZIj4VdRnLpEYpbw999zJx7eHZKSCPSUqfKy85jcUb/anHxbToygSnaQg8cOAD+2vxvd06eQWpzg5JmA3TXEDHTZaMPNg9k0E0maiaSWzxmEJpmiBzBuNULHI2GWkbQKqDunsEsMJpeRzJ/FZz60D/uYI6O8dauhR/9WSdk8bhkxEr6n5OGfPLEXn3jwIA4kqfzFWSRLWgGQ5xK+paXXGOReutzWzSfZttu6MsD69Zy1XqRKcbRkOKf0B3l88oMP4g4GaTQA4UpyDDGLtGm0xF2+HvQqht6sUo9btJLmmeM/ObqIvzh6HufLaXQP78Ni2Q8/Q2XTOlMJNbMiTRjXV54OT9Vb2+gMNFq4Vnpwgc9RXXORopaywRwyi2/hYw+M4iP3juBH6NTwP3NHP3woJBRE4yYOmbdrodnZLSdGpCiB5kgiVuwM5ix9ugB46QLwxefP4nvjjG4GR2Glc+bjOEsVfabKZfRMkcmG47LhDk1FnYFbSYztp8waYA/rGLYmsT+9gH/29w7iIBkZof67NKjVPuEHjRjj99eFD6yEQjNoqtRjtFN0eL7zdhXfPPoGvv/WBdS6tqOU6kcl3YtqsocutW0e3FDzIjQS4zVpQTxPOFdsDjKtPU4KXcuL2FU4i9956h4c4HyZozhOguaNHKRYgT6PsirjWlXfHmIar25Qmh4qkmj63IDmCvPhHE30bsIodLrEhnECusRc43ng2NkaTsx4OL1oYXyJ16eSmFsqcxRsnJjG89ciRjKFjkX4WNTqsRoDXwWQFQxyguldnuFkfzce3w9sZ3ZOkewwlJ0OW5K/oWvcLsToymZXsyaJqDGiFD5XFd56Ns8OexYbbe7xoeQHyHMGte2UmUmmmE6y0Wc4kr7yXZq7N2bhpjPGPEVVhbHLqhqiJ14aCWlEM4IUm0R3WCuW6rGhR6SzCY7rEsf0lRM42LeIp37yMbx/WDczwvcp9cCF7li6unUsb3pFGuKqR3LXytuIW0OMZGKSEDRgTOEXY3RQAui07tmYZ5h5uMI/C2xbge6oXoqVefvy94s4cmwcF0rdyHspJBhNG2JMe0lsC4mRDPIK1as9vTHNrf4M+//8BHK1GRzeZePjDw3jnmEtHzkmZumhC22ehNGtY5VpbqaxfEXBwhpiVtUeyduILSHGTLTxErjPJnIjnOx1UgFaOF60p3NUrs/zNE8FLWgibVacXzpVxbOvjuOtOY6YqWVkt+8hKT0olqusR7dxda0UUCem3v7wsz4hmpETEdKMGL02EtDREHQ+7RXRbxWRXLqMgwMJfOTRA/jx0bAOv1rAcEK0BHSdOerNK+SEuTMWw+0ixlxCDayQ0lCyY4zSKjEa63pcQU/f67l9ndVbmx639S7lK4vAnz/3Fp4/eQWl9DBm/DS279yFhYWiISGcQ65PzHojppEYXR8+9McDdM8D822BGmOUZY6SJSRmz+F9+3fgQ/fvx7vHgEGW28U6spSf8z4lYaIoxkVWme1ATJQ9JIdK42Su+MN1GQjSpQ2ne42SKv/pYwMWe1gCFQaMFVvvtAD0kvHqpI/Xxy/iUr6Gl9+8jGW7D0uJfhTsHMqOms8gU1cbby50PyPFW3UNrxITNnmVmLUqaCTGdSlLJVxCcRMO5zc6JqV5DAZFknIeP/2+d+GDh7fjAKcUzYSaWRRESoFRMKnV/5XViBUiGveFW0iMSfW3sqS2cuCgwGHtkxxZBY0I3Z/UnKHerlckJNTZmRpeuzDHuOUKLi7WSEqZpiyDIKkPu6UZt2RQ1RM09RGhhU3jIdUlbBUxyWSoXn1qUa8N5jJF9FTnMYIlfPJH78ePDOWwi5NJD9uiiV4Iu0ZdiSxeg6XtiIn/lqnEb7xyDqfniijanBQHR1BIZnBhqYTx6XnMLORRKy9iZmYORUbQyZ4hVO0eEpchoRxJHEVl3YBmW5ygvi7GoqVkvasplbSamESC9XLE6MsdOXsBQ94ZPLg7jZ974n6MUUu7lEeLq1UHWQ1eFVe/VnKubkcbEdqImBI9pEmOiC89ewxf/c4xTJY5h/TswHKyD+U0A0Q3ad6JcZNplClZscgZwaNJo3vMKIHKZLc0DWGQRlPikhzFBMZLYh6fAalGjbkfUIfFAxEpgl6IEgwxPKeHQHwvNFVRs3UPJXSN9U3ZGuauXEZvOo3De3P4Rz82jPtpr7o16y1OYTSbY2wSusb16StEXN9COxEjxC/Rk5gyW4uU+lyeEfyxk3jhxCUGix6Kbje6R+/Cq+emSVDXCkE2PSzNS1K+FGxMlwkgNVqoQLqdZsRwllEwGn5DnHnq1Sp7ODquFl2kOfoEPPOUSwyG9K2UVBpdCQvelQnY+SmMZSw8dNdePHx3Dw7T49IIkRusWvRqr8yWUVbUGSRaXNfx7WZoOL8eIRHqtazBTROjiNwz07ze2U2Y72IqSDz6VgnP/PXLeOH4RWTveBAFupmW46JE11frYHqmt7Zikii6IYYjhY0Scea4IYPEcN4JlRQ+EBGFCyuICOOGnAX5fXowT6W49OQy3F66fB69fgEP7t+NT39oDLtoogbE+zywZ1B+4yquUtSNauh2ERNBBkcX6zdURfjReCVZALnCf/N2CV89sYC356q4yDnHd7Ko6eVVl6aMCq+yBFuPMsnNIUSMFgHN/X41UITQnEVPqWhVKmQmao45aMydXulO+Xoct8Agtgi7VqL7O4997gJ+9J534LEHxrCThGjaUEpSYy4vTzGptEiBf4eICWXXr3q5eup8pcDJ1cJMlfNJt4PXGTSevghMF0nWq+dwZalmvn4Rvl0W+4IeoQ8zGFMmcnRAtwJYbnRMnx2JzIye+dJCY4peYZJkpIISuvxl7BvuxaF9u3Ang5D3cERs55DQp20C2lDdzNLd6wTdexGj0aLSVFdYagN+8IgJERagPbnSNCVa4jfuNM0cR0WJkzh9ghU3eoZZJ2nzLkwDE/z9zom3MV8oM6Ccx3KhwDlC0bh0zz/mUyQUXeaNhNRYfrnGWImnHMcxN+D66K7fMTRoiBgbTmIviRjgiTAwDG/SKVpXTCUplTQ+JaGUovOKEU0YJkQaadxfD1G+GCLdbAQtJ2YtKIpZO6KLJidfq8g6JrNjejnNEZPI0bNmeqlcJCktMcnsFXiySDt45lyxPjpYFNPsrN5KYwZCx/oHtiGXS6K3F9gmAnhcq1xag9NbBXqrTfuhy6BvCkgOjW69j2DRhOo3JGqFGO5rJBncJDGs7YawBcQ0iEBizHv0Uke9VFbAOYQ7hiAmSiHK1BYlZZvmH/0vPPTNSJUYPf6sc9qP2q0GKMn0RNcqKbuOKWlbSed1G0dzj1k6EeRm8wrd3zFrXzwkarQyod/rEhPtXwf12jaMrSEmulo2n0WJGPMCbKxUo8gVcniNftmLKzUGcfzVp9otV96XnkRZRX3MmSo8mUgt/zDw07dg3ISLrPms7irKPO/TzOm7/FqO1/djTLXmbFivuQWhF3ZJTLTCoNf0pJ6VT7lHskfCNO5fB21ADNFwtUoLU3gifHpEbapnlHJIRmSaBOUJvbGrW66rSLcJItX7hcZPkMSvUyMbm9QYB2oeVP0ry/R1rHwIqCF/E7HW4EaJaMTWECNEJbABshrGYNTX0qTERgVcpbj6+cZ8EZQ/fs3VCr12+Vchkq1+XeQRthMxzY7dOCR4JDy7pxpsCGno2e2K8DWL66tCBDRLW4HWENNBy9EaU9aAmy3yRk1TY/7rom7KVnC96+unb+Xo6IyYNkWHmDZFh5g2xZbMMT/wiDRyG53KzohpU3SIaVN0iGlTdIhpBs0tt3F+ETrEtCk6xLQpOsS0KTrEtCk6xLQpOsS0KTrEtCWA/w+fvID9z2rZVgAAAABJRU5ErkJggg==;strokeWidth=3;" parent="1" vertex="1">
          <mxGeometry x="120" y="208" width="75.16" height="84" as="geometry" />
        </mxCell>
        <mxCell id="wuP2YbNjgYJWJ45BDKAi-3" value="&lt;font style=&quot;color: light-dark(rgb(0, 0, 0), rgb(0, 0, 0));&quot;&gt;Tweets&lt;/font&gt;" style="text;html=1;align=center;verticalAlign=middle;whiteSpace=wrap;rounded=0;strokeWidth=3;" parent="1" vertex="1">
          <mxGeometry x="127.58000000000001" y="266" width="60" height="30" as="geometry" />
        </mxCell>
        <mxCell id="wuP2YbNjgYJWJ45BDKAi-4" value="&lt;font style=&quot;color: light-dark(rgb(0, 0, 0), rgb(0, 0, 0));&quot;&gt;Preprocessing&lt;/font&gt;" style="whiteSpace=wrap;html=1;aspect=fixed;fillColor=light-dark(#000000,#FFFFFF);direction=south;strokeWidth=3;" parent="1" vertex="1">
          <mxGeometry x="230" y="210" width="82" height="82" as="geometry" />
        </mxCell>
        <mxCell id="wuP2YbNjgYJWJ45BDKAi-5" value="&lt;font style=&quot;color: light-dark(rgb(0, 0, 0), rgb(0, 0, 0));&quot;&gt;Supervised learning Sentiment detection&lt;/font&gt;" style="whiteSpace=wrap;html=1;aspect=fixed;fillColor=light-dark(#000000,#FFFFFF);direction=south;strokeWidth=3;" parent="1" vertex="1">
          <mxGeometry x="359" y="150" width="116" height="116" as="geometry" />
        </mxCell>
        <mxCell id="wuP2YbNjgYJWJ45BDKAi-7" value="&lt;font face=&quot;Helvetica&quot; style=&quot;color: light-dark(rgb(0, 0, 0), rgb(0, 0, 0));&quot;&gt;&lt;font style=&quot;&quot;&gt;Supervised learning Sentiment detection +&amp;nbsp;&lt;/font&gt;&lt;span style=&quot;line-height: 107%;&quot;&gt;Lexicon-Based Sentiment&amp;nbsp;&lt;/span&gt;&lt;/font&gt;" style="whiteSpace=wrap;html=1;aspect=fixed;fillColor=light-dark(#000000, #ffffff);direction=south;strokeColor=light-dark(#000000, #ffffff);strokeWidth=3;" parent="1" vertex="1">
          <mxGeometry x="359" y="300" width="110" height="110" as="geometry" />
        </mxCell>
        <mxCell id="wuP2YbNjgYJWJ45BDKAi-8" value="&lt;font style=&quot;color: light-dark(rgb(0, 0, 0), rgb(0, 0, 0));&quot;&gt;Performance comparison&lt;/font&gt;" style="whiteSpace=wrap;html=1;aspect=fixed;fillColor=light-dark(#000000,#FFFFFF);direction=south;strokeWidth=3;" parent="1" vertex="1">
          <mxGeometry x="535" y="216" width="90" height="90" as="geometry" />
        </mxCell>
        <mxCell id="W_ElrW_IsSuHnjOf_8fF-1" value="&lt;font style=&quot;color: light-dark(rgb(0, 0, 0), rgb(0, 0, 0));&quot;&gt;Thematic crime insights&lt;/font&gt;" style="whiteSpace=wrap;html=1;aspect=fixed;fillColor=light-dark(#000000,#FFFFFF);direction=south;strokeWidth=3;" vertex="1" parent="1">
          <mxGeometry x="660" y="210" width="90" height="90" as="geometry" />
        </mxCell>
        <mxCell id="W_ElrW_IsSuHnjOf_8fF-3" value="" style="endArrow=none;html=1;rounded=0;strokeWidth=3;" edge="1" parent="1">
          <mxGeometry width="50" height="50" relative="1" as="geometry">
            <mxPoint x="330" y="360" as="sourcePoint" />
            <mxPoint x="330" y="200" as="targetPoint" />
          </mxGeometry>
        </mxCell>
        <mxCell id="W_ElrW_IsSuHnjOf_8fF-5" value="" style="endArrow=none;html=1;rounded=0;strokeWidth=3;" edge="1" parent="1">
          <mxGeometry width="50" height="50" relative="1" as="geometry">
            <mxPoint x="310" y="260" as="sourcePoint" />
            <mxPoint x="330" y="260" as="targetPoint" />
          </mxGeometry>
        </mxCell>
        <mxCell id="W_ElrW_IsSuHnjOf_8fF-7" value="" style="endArrow=classic;html=1;rounded=0;strokeWidth=3;" edge="1" parent="1">
          <mxGeometry width="50" height="50" relative="1" as="geometry">
            <mxPoint x="330" y="200" as="sourcePoint" />
            <mxPoint x="355" y="200" as="targetPoint" />
          </mxGeometry>
        </mxCell>
        <mxCell id="W_ElrW_IsSuHnjOf_8fF-12" value="" style="endArrow=classic;html=1;rounded=0;strokeWidth=3;" edge="1" parent="1">
          <mxGeometry width="50" height="50" relative="1" as="geometry">
            <mxPoint x="330" y="360" as="sourcePoint" />
            <mxPoint x="355" y="360" as="targetPoint" />
          </mxGeometry>
        </mxCell>
        <mxCell id="W_ElrW_IsSuHnjOf_8fF-13" value="" style="endArrow=none;html=1;rounded=0;strokeWidth=3;" edge="1" parent="1">
          <mxGeometry width="50" height="50" relative="1" as="geometry">
            <mxPoint x="506" y="346" as="sourcePoint" />
            <mxPoint x="506" y="206" as="targetPoint" />
          </mxGeometry>
        </mxCell>
        <mxCell id="W_ElrW_IsSuHnjOf_8fF-17" value="" style="endArrow=none;html=1;rounded=0;strokeWidth=3;" edge="1" parent="1">
          <mxGeometry width="50" height="50" relative="1" as="geometry">
            <mxPoint x="475" y="207" as="sourcePoint" />
            <mxPoint x="505" y="207" as="targetPoint" />
          </mxGeometry>
        </mxCell>
        <mxCell id="W_ElrW_IsSuHnjOf_8fF-21" value="" style="endArrow=none;html=1;rounded=0;strokeWidth=3;" edge="1" parent="1">
          <mxGeometry width="50" height="50" relative="1" as="geometry">
            <mxPoint x="465" y="345" as="sourcePoint" />
            <mxPoint x="505" y="345" as="targetPoint" />
          </mxGeometry>
        </mxCell>
        <mxCell id="W_ElrW_IsSuHnjOf_8fF-23" value="" style="endArrow=classic;html=1;rounded=0;strokeWidth=3;" edge="1" parent="1">
          <mxGeometry width="50" height="50" relative="1" as="geometry">
            <mxPoint x="507" y="264" as="sourcePoint" />
            <mxPoint x="536" y="264" as="targetPoint" />
          </mxGeometry>
        </mxCell>
        <mxCell id="W_ElrW_IsSuHnjOf_8fF-24" value="" style="endArrow=classic;html=1;rounded=0;strokeWidth=3;" edge="1" parent="1">
          <mxGeometry width="50" height="50" relative="1" as="geometry">
            <mxPoint x="628" y="262" as="sourcePoint" />
            <mxPoint x="657" y="262" as="targetPoint" />
          </mxGeometry>
        </mxCell>
      </root>
    </mxGraphModel>
  </diagram>
</mxfile>
